HIERARCHY
ROOT Hips
{
	OFFSET 0.000000 0.000000 0.000000 
	CHANNELS 6 Xposition Yposition Zposition Zrotation Yrotation Xrotation
	JOINT LeftUpLeg
	{
		OFFSET 1.363060 -1.794630 0.839290 
		CHANNELS 3 Zrotation Yrotation Xrotation
		JOINT LeftLeg
		{
			OFFSET 2.448110 -6.726130 0.000000 
			CHANNELS 3 Zrotation Yrotation Xrotation
			JOINT LeftFoot
			{
				OFFSET 2.562200 -7.039590 0.000000 
				CHANNELS 3 Zrotation Yrotation Xrotation
				JOINT LeftToeBase
				{
					OFFSET 0.157640 -0.433110 2.322550 
					CHANNELS 3 Zrotation Yrotation Xrotation
					End Site
					{
						OFFSET 0.000000 0.000000 0.000000 
					}
				}
			}
		}
	}
	JOINT RightUpLeg
	{
		OFFSET -1.305520 -1.794630 0.839290 
		CHANNELS 3 Zrotation Yrotation Xrotation
		JOINT RightLeg
		{
			OFFSET -2.542530 -6.985550 0.000000 
			CHANNELS 3 Zrotation Yrotation Xrotation
			JOINT RightFoot
			{
				OFFSET -2.568260 -7.056230 0.000000 
				CHANNELS 3 Zrotation Yrotation Xrotation
				JOINT RightToeBase
				{
					OFFSET -0.164730 -0.452590 2.363150 
					CHANNELS 3 Zrotation Yrotation Xrotation
					End Site
					{
						OFFSET 0.000000 0.000000 0.000000 
					}
				}
			}
		}
	}
	JOINT Spine
	{
		OFFSET 0.028270 2.035590 -0.193380 
		CHANNELS 3 Zrotation Yrotation Xrotation
		JOINT Spine1
		{
			OFFSET 0.056720 2.048850 -0.042750 
			CHANNELS 3 Zrotation Yrotation Xrotation
			JOINT Neck1
			{
				OFFSET -0.054170 1.746240 0.172020 
				CHANNELS 3 Zrotation Yrotation Xrotation
				JOINT Head
				{
					OFFSET 0.104070 1.761360 -0.123970 
					CHANNELS 3 Zrotation Yrotation Xrotation
					End Site
					{
						OFFSET 0.000000 0.000000 0.000000 
					}
				}
			}
			JOINT LeftArm
			{
				OFFSET 3.362410 1.200890 -0.311210 
				CHANNELS 3 Zrotation Yrotation Xrotation
				JOINT LeftForeArm
				{
					OFFSET 4.983000 -0.000000 -0.000000 
					CHANNELS 3 Zrotation Yrotation Xrotation
					JOINT LeftHand
					{
						OFFSET 3.483560 -0.000000 -0.000000 
						CHANNELS 3 Zrotation Yrotation Xrotation
						JOINT LeftHandIndex1
						{
							OFFSET 0.715260 -0.000000 -0.000000 
							CHANNELS 3 Zrotation Yrotation Xrotation
							End Site
							{
								OFFSET 0.000000 0.000000 0.000000 
							}
						}
					}
				}
			}
			JOINT RightArm
			{
				OFFSET -3.136600 1.374050 -0.404650 
				CHANNELS 3 Zrotation Yrotation Xrotation
				JOINT RightForeArm
				{
					OFFSET -5.241900 -0.000000 -0.000000 
					CHANNELS 3 Zrotation Yrotation Xrotation
					JOINT RightHand
					{
						OFFSET -3.444170 -0.000000 -0.000000 
						CHANNELS 3 Zrotation Yrotation Xrotation
						JOINT RightHandIndex1
						{
							OFFSET -0.622530 -0.000000 -0.000000 
							CHANNELS 3 Zrotation Yrotation Xrotation
							End Site
							{
								OFFSET 0.000000 0.000000 0.000000 
							}
						}
					}
				}
			}
		}
	}
}
MOTION
Frames: 7
Frame Time: 0.041667
6.876980 18.082991 -3.119441 0.357090 3.256062 2.656186 -5.657813 8.530878 -15.828053 1.419610 9.781331 26.001073 1.133975 -4.662784 -0.607181 1.164800 6.851300 19.275500 21.823371 4.405503 9.908515 0.879645 -1.324405 0.480259 0.322239 -20.024414 -32.188728 -1.567500 -7.900200 22.411500 1.296274 0.888493 -3.412522 -3.969675 0.773588 2.151045 2.701315 -4.450900 22.056187 0.857000 -1.975900 4.742800 -80.840817 -1.447757 31.560448 15.761091 -21.217134 -2.905347 0.623099 0.218681 -11.267127 -7.125000 0.000000 0.000000 80.109063 -6.078590 16.572563 -14.487350 17.940147 -3.512654 1.980771 0.730978 13.901167 7.125000 0.000000 0.000000 
6.856524 18.078643 -3.104518 0.208923 3.262266 2.571822 -5.566246 8.326108 -15.599353 1.408102 9.722124 25.838026 1.197504 -5.187540 0.001790 1.186400 6.912400 19.456200 22.083455 3.871030 9.861183 0.884603 -1.381542 0.596395 0.455138 -20.341836 -31.577165 -1.293600 -7.206300 20.327900 1.420023 0.716841 -3.371417 -3.830170 0.692781 2.284619 2.613052 -4.456374 23.325409 0.784500 -1.974000 4.707400 -81.068613 -1.477636 31.489398 15.413487 -20.781680 -2.809507 0.651747 0.253824 -11.726430 -7.125000 0.000000 0.000000 79.639663 -6.000428 17.566275 -12.586366 15.829462 -3.058567 1.961841 1.044593 13.291806 7.125000 0.000000 0.000000 
6.839724 18.075580 -3.085445 0.018384 3.224704 2.517137 -5.437292 8.214413 -15.321844 1.363592 9.597018 25.477079 1.234034 -5.512576 0.578329 1.105900 6.681700 18.775600 22.309405 3.178782 9.681309 0.881299 -1.463004 0.767545 0.569708 -20.471163 -30.781782 -0.984900 -6.316800 17.706300 1.471931 0.701053 -3.375411 -3.884213 0.686726 2.352299 2.521592 -4.577324 24.085693 0.750000 -2.034100 4.992400 -81.103699 -1.391892 31.687940 15.129269 -20.421910 -2.727223 0.666813 0.272928 -12.290216 -7.125000 0.000000 0.000000 79.533323 -6.271618 18.284904 -11.004589 14.068592 -2.756683 1.869292 1.350683 12.582421 7.125000 0.000000 0.000000 
6.824703 18.071231 -3.068053 -0.064735 3.112432 2.511098 -5.397496 7.872794 -14.904431 1.263602 9.397241 24.852136 1.235053 -5.535079 0.973105 1.223200 7.014700 19.759000 22.391849 2.568368 9.471878 0.876965 -1.546370 0.948063 0.703249 -20.692921 -29.906171 -0.644300 -5.135000 14.293900 1.500521 0.740115 -3.372735 -3.917187 0.708224 2.443066 2.481651 -4.653529 24.460846 0.717900 -2.066500 5.157700 -81.154487 -1.381541 31.562441 15.065725 -20.334276 -2.681070 0.628489 0.258010 -12.006663 -7.125000 0.000000 0.000000 79.319759 -5.568185 16.422864 -13.718412 17.291334 -3.637830 1.523917 1.756427 5.770061 7.125000 0.000000 0.000000 
6.808891 18.067970 -3.050759 -0.212302 3.053405 2.480753 -5.296347 7.542385 -14.489560 1.174461 9.203138 24.258257 1.243233 -5.610801 1.408476 1.277400 7.162800 20.198700 22.582115 2.037220 9.322284 0.874116 -1.620721 1.108207 0.795521 -20.819331 -29.222202 -0.431900 -4.217400 11.689100 1.552811 0.722443 -3.377843 -3.937993 0.701289 2.517221 2.429917 -4.711849 25.091284 0.692700 -2.092800 5.395800 -81.226462 -1.316984 31.555541 14.885072 -20.101171 -2.618439 0.619674 0.264206 -12.141009 -7.125000 0.000000 0.000000 79.141196 -5.388351 16.038678 -14.332003 18.050406 -3.913463 1.355758 1.916280 2.933028 7.125000 0.000000 0.000000 
6.793969 18.065006 -3.033267 -0.353949 3.003163 2.452035 -5.200517 7.126208 -13.992531 1.063439 8.968394 23.533202 1.238921 -5.567037 1.762094 1.333800 7.313000 20.646000 22.765668 1.586743 9.202611 0.870855 -1.686438 1.249787 0.860487 -20.877531 -28.657680 -0.288900 -3.456700 9.552900 1.598328 0.711411 -3.392479 -3.966163 0.696576 2.574678 2.399347 -4.781571 25.780780 0.669300 -2.121700 5.646800 -81.291391 -1.225842 31.562068 14.703963 -19.866063 -2.556245 0.610400 0.270679 -12.253592 -7.125000 0.000000 0.000000 79.012239 -5.279423 15.702865 -15.161711 19.032440 -4.222964 1.264629 1.977784 0.739297 7.125000 0.000000 0.000000 
6.779738 18.062337 -3.015281 -0.483419 2.963958 2.414305 -5.120266 6.614705 -13.400036 0.933936 8.696703 22.688046 1.224138 -5.421022 2.009497 1.386400 7.449900 21.055300 22.936630 1.227645 9.136623 0.867639 -1.737996 1.358996 0.897255 -20.866146 -28.240057 -0.206800 -2.927700 8.077400 1.641297 0.695268 -3.412435 -3.986294 0.688213 2.617825 2.381611 -4.854766 26.547402 0.647700 -2.150500 5.918800 -81.362941 -1.114377 31.569982 14.511432 -19.615593 -2.492612 0.602884 0.279254 -12.344333 -7.125000 0.000000 0.000000 78.911638 -5.246239 15.554936 -16.036657 20.024950 -4.494085 1.282190 1.941362 -0.634922 7.125000 0.000000 0.000000 
